<mxfile host="app.diagrams.net" modified="2023-03-01T08:07:13.416Z" agent="5.0 (Windows NT 10.0; Win64; x64) AppleWebKit/537.36 (KHTML, like Gecko) Chrome/110.0.0.0 Safari/537.36" etag="4yM8EYI09KOw860lWmr2" version="20.8.23" type="github">
  <diagram id="C5RBs43oDa-KdzZeNtuy" name="Page-1">
    <mxGraphModel dx="1430" dy="521" grid="1" gridSize="10" guides="1" tooltips="1" connect="1" arrows="1" fold="1" page="1" pageScale="1" pageWidth="827" pageHeight="1169" math="0" shadow="0">
      <root>
        <mxCell id="WIyWlLk6GJQsqaUBKTNV-0" />
        <mxCell id="WIyWlLk6GJQsqaUBKTNV-1" parent="WIyWlLk6GJQsqaUBKTNV-0" />
        <mxCell id="zm3v7K6_QgqVm0eE2wGA-0" value="Query sourceID by GO function" style="rounded=1;whiteSpace=wrap;html=1;" vertex="1" parent="WIyWlLk6GJQsqaUBKTNV-1">
          <mxGeometry x="230" y="400" width="210" height="40" as="geometry" />
        </mxCell>
        <mxCell id="zm3v7K6_QgqVm0eE2wGA-6" style="edgeStyle=orthogonalEdgeStyle;rounded=0;orthogonalLoop=1;jettySize=auto;html=1;exitX=0.5;exitY=1;exitDx=0;exitDy=0;entryX=0.5;entryY=0;entryDx=0;entryDy=0;" edge="1" parent="WIyWlLk6GJQsqaUBKTNV-1" source="zm3v7K6_QgqVm0eE2wGA-2" target="zm3v7K6_QgqVm0eE2wGA-3">
          <mxGeometry relative="1" as="geometry" />
        </mxCell>
        <mxCell id="zm3v7K6_QgqVm0eE2wGA-2" value="Row selected by SQL code" style="rounded=1;whiteSpace=wrap;html=1;" vertex="1" parent="WIyWlLk6GJQsqaUBKTNV-1">
          <mxGeometry x="230" y="280" width="210" height="40" as="geometry" />
        </mxCell>
        <mxCell id="zm3v7K6_QgqVm0eE2wGA-7" style="edgeStyle=orthogonalEdgeStyle;rounded=0;orthogonalLoop=1;jettySize=auto;html=1;exitX=0.5;exitY=1;exitDx=0;exitDy=0;entryX=0.5;entryY=0;entryDx=0;entryDy=0;" edge="1" parent="WIyWlLk6GJQsqaUBKTNV-1" source="zm3v7K6_QgqVm0eE2wGA-3" target="zm3v7K6_QgqVm0eE2wGA-0">
          <mxGeometry relative="1" as="geometry" />
        </mxCell>
        <mxCell id="zm3v7K6_QgqVm0eE2wGA-3" value="Emission factor table v2" style="rounded=1;whiteSpace=wrap;html=1;" vertex="1" parent="WIyWlLk6GJQsqaUBKTNV-1">
          <mxGeometry x="230" y="340" width="210" height="40" as="geometry" />
        </mxCell>
        <mxCell id="zm3v7K6_QgqVm0eE2wGA-5" style="edgeStyle=orthogonalEdgeStyle;rounded=0;orthogonalLoop=1;jettySize=auto;html=1;exitX=0.5;exitY=1;exitDx=0;exitDy=0;entryX=0.5;entryY=0;entryDx=0;entryDy=0;" edge="1" parent="WIyWlLk6GJQsqaUBKTNV-1" source="zm3v7K6_QgqVm0eE2wGA-4" target="zm3v7K6_QgqVm0eE2wGA-2">
          <mxGeometry relative="1" as="geometry" />
        </mxCell>
        <mxCell id="zm3v7K6_QgqVm0eE2wGA-4" value="Emission factor table v1" style="rounded=1;whiteSpace=wrap;html=1;" vertex="1" parent="WIyWlLk6GJQsqaUBKTNV-1">
          <mxGeometry x="230" y="220" width="210" height="40" as="geometry" />
        </mxCell>
      </root>
    </mxGraphModel>
  </diagram>
</mxfile>
